/* XPM */
static char * config_preferences_xpm[] = {
"16 16 12 1",
" 	c None",
".	c #7D4900",
"+	c #333367",
"@	c #CC9804",
"#	c #DBC84E",
"$	c #0066CB",
"%	c #5C6272",
"&	c #FFFFFF",
"*	c #362F2D",
"=	c #030353",
"-	c #9A99FF",
";	c #737373",
"                ",
"       ..... +++",
"      .@.###.$$$",
"     .@.@.@@@$$$",
"%%%%.@.#.@.@@$$$",
"%&&.#.&.#.@**$$$",
"%&&&.&&&.#*&=-++",
"%&&&&&&&&*&&=   ",
"%&&&&&&&&&&&=   ",
"%&;;&;;;;;&&=   ",
"%&&&&&&&&&&&=   ",
"%&;;&;;;;;&&=   ",
"%&&&&&&&&&&&=   ",
"%&&&&&&&&&&&=   ",
"%============   ",
"                "};
