/* XPM */
static char * console_xpm[] = {
"16 16 8 1",
" 	c None",
".	c #5C6272",
"+	c #030353",
"@	c #0066CB",
"#	c #2E3192",
"$	c #FFFFFF",
"%	c #E3EEFC",
"&	c #737373",
"                ",
"                ",
"..............+ ",
".@@@@@@@@@@@@@+ ",
".@@@@@@@@@@@@@+ ",
".#############+ ",
".$$$$$$$$$$$$%+ ",
".$$$$$$$$$$$$%+ ",
".$$$&$$$$$$$$%+ ",
".$&$$&$$$$$$$%+ ",
".$$$$&$$$$$$$%+ ",
".$&$$$&$$$$$$%+ ",
".$$$$$$$$$$$$%+ ",
".%%%%%%%%%%%%%+ ",
".++++++++++++++ ",
"                "};
