/* XPM */
static char * file_save_xpm[] = {
"16 16 198 2",
"  	c None",
". 	c #545DC2",
"+ 	c #5C5FC6",
"@ 	c #5D5BBE",
"# 	c #5A5DC4",
"$ 	c #5C60C4",
"% 	c #5B5DC4",
"& 	c #595EC4",
"* 	c #5A5CC1",
"= 	c #5B5DC2",
"- 	c #5B5DC1",
"; 	c #5A5EC1",
"> 	c #5C5BC1",
", 	c #5C5EC5",
"' 	c #898DD6",
") 	c #3032AD",
"! 	c #C7E5F0",
"~ 	c #2A2E9A",
"{ 	c #CAD3DC",
"] 	c #CBD2DC",
"^ 	c #C8D0DB",
"/ 	c #C9D1DC",
"( 	c #CDD1DD",
"_ 	c #C9D2D9",
": 	c #CAD0DE",
"< 	c #CAD1D9",
"[ 	c #2D2C94",
"} 	c #CCE1F6",
"| 	c #413968",
"1 	c #A19FA4",
"2 	c #2F35B1",
"3 	c #CCE2F9",
"4 	c #373888",
"5 	c #C9D3DC",
"6 	c #FEFCFF",
"7 	c #FFFFFD",
"8 	c #FFFDFE",
"9 	c #FFFEFA",
"0 	c #FDFFFE",
"a 	c #FEFCFD",
"b 	c #FFFBFF",
"c 	c #2B3384",
"d 	c #C8E3F6",
"e 	c #423964",
"f 	c #9D9EA0",
"g 	c #2E33A9",
"h 	c #BBDDF9",
"i 	c #383D99",
"j 	c #C9CFDB",
"k 	c #FEFEFE",
"l 	c #FEFFFA",
"m 	c #FBFFFE",
"n 	c #FFFDFF",
"o 	c #FFFEFF",
"p 	c #F8F9FE",
"q 	c #30368E",
"r 	c #BBDDF8",
"s 	c #423966",
"t 	c #A09FA5",
"u 	c #3233B2",
"v 	c #A1D2FD",
"w 	c #39449D",
"x 	c #CAD0DC",
"y 	c #FDFDFD",
"z 	c #FEFFFF",
"A 	c #FDFFFA",
"B 	c #27308B",
"C 	c #A4D0FF",
"D 	c #453967",
"E 	c #9FA0A4",
"F 	c #2F33B0",
"G 	c #A7D2FC",
"H 	c #38439F",
"I 	c #FCFCFE",
"J 	c #FDFFFC",
"K 	c #FFFDFC",
"L 	c #FEFEFF",
"M 	c #FFFEFC",
"N 	c #303F90",
"O 	c #A6D1FB",
"P 	c #463869",
"Q 	c #A1A1A1",
"R 	c #2E32AD",
"S 	c #A1CDFA",
"T 	c #333C9B",
"U 	c #CCD1D7",
"V 	c #FEF7FF",
"W 	c #F4FEF3",
"X 	c #FBFCFE",
"Y 	c #FFFFFF",
"Z 	c #293990",
"` 	c #9ECDF9",
" .	c #423A6D",
"..	c #9F9EA3",
"+.	c #2E34B0",
"@.	c #8CCAFD",
"#.	c #373799",
"$.	c #292F91",
"%.	c #273892",
"&.	c #3D2E8B",
"*.	c #2A2E99",
"=.	c #2E3A90",
"-.	c #2B349B",
";.	c #2C3093",
">.	c #292D90",
",.	c #3C3896",
"'.	c #2A3285",
").	c #8CC8FC",
"!.	c #9E9FA3",
"~.	c #2E34AC",
"{.	c #84B4FC",
"].	c #65BAF1",
"^.	c #78C4FE",
"/.	c #8BABFE",
"(.	c #6EACF7",
"_.	c #6FC0F7",
":.	c #8FABFF",
"<.	c #7FB2F3",
"[.	c #75B6F8",
"}.	c #6FB3FA",
"|.	c #7CB6FF",
"1.	c #76AEF9",
"2.	c #7EBEFC",
"3.	c #433A67",
"4.	c #9FA0A5",
"5.	c #2D33AF",
"6.	c #6CBAFA",
"7.	c #6CAEFC",
"8.	c #33278D",
"9.	c #302F8D",
"0.	c #2E3BA1",
"a.	c #3E3890",
"b.	c #192587",
"c.	c #2937A2",
"d.	c #2E3698",
"e.	c #3A3788",
"f.	c #2C339B",
"g.	c #71AAF7",
"h.	c #65AEF2",
"i.	c #42386A",
"j.	c #9F9FA1",
"k.	c #3132B1",
"l.	c #78A7F5",
"m.	c #66AAFF",
"n.	c #363690",
"o.	c #C8CEDC",
"p.	c #C8D1DA",
"q.	c #DEDFE3",
"r.	c #DDDDE7",
"s.	c #DBDEE3",
"t.	c #2B3491",
"u.	c #6BAEFD",
"v.	c #63A2FF",
"w.	c #413A66",
"x.	c #A0A0A0",
"y.	c #3130AF",
"z.	c #48AFF2",
"A.	c #57B1FF",
"B.	c #3C2C8E",
"C.	c #FFF4FC",
"D.	c #FFFFFB",
"E.	c #F8FCFF",
"F.	c #FDFFF4",
"G.	c #253A89",
"H.	c #55A5FA",
"I.	c #67A4FF",
"J.	c #423B67",
"K.	c #9B9FA2",
"L.	c #21298B",
"M.	c #5DABFD",
"N.	c #5A8FF7",
"O.	c #26368E",
"P.	c #FFFDF4",
"Q.	c #F0FFFC",
"R.	c #F8FEFA",
"S.	c #F5FDFF",
"T.	c #EEF0FF",
"U.	c #F1E7FF",
"V.	c #44499D",
"W.	c #549DFB",
"X.	c #5E9FFB",
"Y.	c #423A69",
"Z.	c #6F6C8B",
"`.	c #42386C",
" +	c #42396E",
".+	c #453969",
"++	c #433A69",
"@+	c #433767",
"#+	c #423B65",
"$+	c #443B6A",
"%+	c #433B6A",
"&+	c #A1A0A5",
"*+	c #A0A0A2",
"=+	c #A1A2A6",
"-+	c #A2A0A3",
";+	c #9CA0A1",
">+	c #9D9EA2",
",+	c #A09FA4",
"                                ",
". + @ # $ % & * # = - ; > , '   ",
") ! ~ { ] ^ / ( _ / : < [ } | 1 ",
"2 3 4 5 6 7 8 9 0 0 a b c d e f ",
"g h i j 6 k l m n o k p q r s t ",
"u v w x y l 0 y a k z A B C D E ",
"F G H ] I k J K k k L M N O P Q ",
"R S T U m V W z X 7 Y Y Z `  ...",
"+.@.#.$.%.&.*.=.-.;.>.,.'.).s !.",
"~.{.].^./.(._.:.<.[.}.|.1.2.3.4.",
"5.6.7.8.9.0.a.b.c.d.e.f.g.h.i.j.",
"k.l.m.n.o.j ( p.q.r.s.t.u.v.w.x.",
"y.z.A.B.x C.D.E.F.z 7 G.H.I.J.K.",
"L.M.N.O./ P.Q.R.S.T.U.V.W.X.Y.E ",
"Z.`. +.+++@+#+$+D i.| e J.%+J.j.",
"  E !.&+*+&+=+-+j.;+x.>+,+j.E   "};
