/* XPM */
static char * edit_find_previous_xpm[] = {
"16 16 115 2",
"  	c None",
". 	c #717286",
"+ 	c #6D7486",
"@ 	c #6F748A",
"# 	c #717487",
"$ 	c #A09FA5",
"% 	c #6E7588",
"& 	c #FFFFFF",
"* 	c #FAFFF9",
"= 	c #FEFFFA",
"- 	c #37346B",
"; 	c #9F9FA1",
"> 	c #6E7386",
", 	c #FEFFFF",
"' 	c #FEFEFC",
") 	c #FFFDFE",
"! 	c #343468",
"~ 	c #9E9FA3",
"{ 	c #6E748A",
"] 	c #FEFDF9",
"^ 	c #FDFDFB",
"/ 	c #FEFCFF",
"( 	c #FDFFFC",
"_ 	c #343466",
": 	c #6C7487",
"< 	c #FDFFF9",
"[ 	c #FDFDFD",
"} 	c #FFFFFD",
"| 	c #34346A",
"1 	c #A09EA1",
"2 	c #6D7487",
"3 	c #F9FDFE",
"4 	c #FDFFFE",
"5 	c #E2EFF8",
"6 	c #E4ECFF",
"7 	c #313268",
"8 	c #353365",
"9 	c #FEFEFF",
"0 	c #DEEAF6",
"a 	c #E5EDFA",
"b 	c #E5ECFC",
"c 	c #E4EDFC",
"d 	c #31326A",
"e 	c #9F9EA3",
"f 	c #53528B",
"g 	c #010451",
"h 	c #323467",
"i 	c #E2EDFF",
"j 	c #DEEFF9",
"k 	c #E5EEFD",
"l 	c #333568",
"m 	c #7C4A01",
"n 	c #A09EA3",
"o 	c #030456",
"p 	c #B7D9F4",
"q 	c #333369",
"r 	c #E2EEFE",
"s 	c #E2F0FB",
"t 	c #323264",
"u 	c #38425B",
"v 	c #CB9706",
"w 	c #7A4800",
"x 	c #040353",
"y 	c #B4D6F9",
"z 	c #A3D4FC",
"A 	c #313364",
"B 	c #010356",
"C 	c #372F2C",
"D 	c #DCC64F",
"E 	c #CA9801",
"F 	c #7A4A02",
"G 	c #A0A0A2",
"H 	c #00024F",
"I 	c #B6DBF8",
"J 	c #49AEFF",
"K 	c #A7D3F6",
"L 	c #B8DCF6",
"M 	c #B4D7F3",
"N 	c #B7D9F2",
"O 	c #060352",
"P 	c #9FA0A2",
"Q 	c #382F32",
"R 	c #DAC64B",
"S 	c #CA9803",
"T 	c #7E4800",
"U 	c #323369",
"V 	c #54A1FD",
"W 	c #549EFD",
"X 	c #539DFF",
"Y 	c #569CFE",
"Z 	c #4DA2FC",
"` 	c #539EF9",
" .	c #050450",
"..	c #9FA1A0",
"+.	c #392E2A",
"@.	c #D9C950",
"#.	c #7B4902",
"$.	c #9FA0A5",
"%.	c #529DFA",
"&.	c #549DF9",
"*.	c #373064",
"=.	c #313366",
"-.	c #333367",
";.	c #343667",
">.	c #35302C",
",.	c #343027",
"'.	c #A09FA4",
").	c #363466",
"!.	c #509EFF",
"~.	c #353163",
"{.	c #9EA09F",
"].	c #9C9FA4",
"^.	c #A19CA0",
"/.	c #2F3569",
"(.	c #313467",
"          . + @ #               ",
"      $ % & & * = - ;           ",
"      > , ' ' ) & , ! ~         ",
"    { ] ^ ^ / & & ' ( _         ",
"    : ] < [ = & } ' ) | 1       ",
"    2 ' 3 ' [ } 4 5 6 7 ;       ",
"    8 9 = & & 0 a b c d e       ",
"      f ( g h i j k l m n       ",
"      ; o p q r s t u v w e     ",
"      x y z A 7 q B C D E F G   ",
"    H I J K L M N O P Q R S T G ",
"    U V W X Y Z `  .  ..+.@.#.$.",
"      t %.&.*.=.-.;.    $.>.,.'.",
"        ).!.~.            {.].^.",
"          /.(.                  ",
"                                "};
