/* XPM */
static char * edit_find_next_xpm[] = {
"16 16 106 2",
"  	c None",
". 	c #71738A",
"+ 	c #6C7586",
"@ 	c #A19FA4",
"# 	c #6E7387",
"$ 	c #FFFFFD",
"% 	c #FDFFFC",
"& 	c #FFFDFE",
"* 	c #FEFFFF",
"= 	c #323369",
"- 	c #A19FA2",
"; 	c #FFFFFF",
"> 	c #FFFDFF",
", 	c #FEFEFC",
"' 	c #FDFFFE",
") 	c #323465",
"! 	c #9E9FA3",
"~ 	c #6C7386",
"{ 	c #FFFEFC",
"] 	c #FDFEFF",
"^ 	c #353267",
"/ 	c #6F7488",
"( 	c #FDFFFA",
"_ 	c #FEFFFD",
": 	c #E2EEFA",
"< 	c #353365",
"[ 	c #9DA1A2",
"} 	c #6D7286",
"| 	c #E4EDFC",
"1 	c #E5ECFE",
"2 	c #9B9FA2",
"3 	c #333565",
"4 	c #E2EEFC",
"5 	c #E3EFFD",
"6 	c #343166",
"7 	c #343466",
"8 	c #FEFEFF",
"9 	c #353269",
"0 	c #000350",
"a 	c #E2F0FD",
"b 	c #34346A",
"c 	c #7E4A00",
"d 	c #9F9F9F",
"e 	c #9E9EA0",
"f 	c #323266",
"g 	c #B5D8F4",
"h 	c #020451",
"i 	c #E4EDFE",
"j 	c #363466",
"k 	c #3D455C",
"l 	c #CB9906",
"m 	c #7C4A01",
"n 	c #A29DA3",
"o 	c #050356",
"p 	c #333365",
"q 	c #37336E",
"r 	c #353364",
"s 	c #A3D3F7",
"t 	c #B6D9F7",
"u 	c #050454",
"v 	c #9E9FA1",
"w 	c #382C30",
"x 	c #DDC950",
"y 	c #CE9506",
"z 	c #7E4800",
"A 	c #9FA0A5",
"B 	c #040758",
"C 	c #B6DAF4",
"D 	c #B4D7F3",
"E 	c #B7D9F4",
"F 	c #A4D4FC",
"G 	c #4EAFFE",
"H 	c #B6D9F9",
"I 	c #040255",
"J 	c #9D9EA0",
"K 	c #392D2D",
"L 	c #DCC64F",
"M 	c #CB9904",
"N 	c #7D4700",
"O 	c #A09E9F",
"P 	c #040651",
"Q 	c #559BFA",
"R 	c #539DFC",
"S 	c #51A0FC",
"T 	c #539EFB",
"U 	c #51A0FD",
"V 	c #52A1FF",
"W 	c #333367",
"X 	c #A1A1A3",
"Y 	c #372D2B",
"Z 	c #DAC74E",
"` 	c #7C4B00",
" .	c #9F9EA4",
"..	c #323264",
"+.	c #333464",
"@.	c #323467",
"#.	c #50A1FD",
"$.	c #4F9DFF",
"%.	c #9F9D9E",
"&.	c #362D2E",
"*.	c #39316C",
"=.	c #549EFD",
"-.	c #313163",
";.	c #9F9FA1",
">.	c #333065",
",.	c #353666",
"        . + + .                 ",
"    @ # $ % & * = -             ",
"    # ; $ > & , ' ) !           ",
"  ~ ; , { ; ] % > $ ^           ",
"  / ( _ $ , { & ; : < [         ",
"  } $ ] ; > { , | 1 = 2         ",
"  3 { $ ] ; 4 | 5 5 6 @         ",
"    7 8 9 0 | a 4 b c d         ",
"    e 9 f g h i j k l m n       ",
"  o p q r s t u v w x y z A     ",
"  B C D E F G H I J K L M N O   ",
"  P Q R S T U V W   X Y Z `  .  ",
"  ..+.@.f #.$.9       %.Y &. .  ",
"        *.=.-.          ;. .O   ",
"        >.,.                    ",
"                                "};
