/* XPM */
static char * edit_replace_xpm[] = {
"16 16 11 1",
" 	c None",
".	c #000000",
"+	c #3B455E",
"@	c #FEFEFE",
"#	c #9F9FA2",
"$	c #EDF0F4",
"%	c #FFFFFF",
"&	c #408DED",
"*	c #000135",
"=	c #4494EA",
"-	c #4799F9",
"     ....       ",
"   +.@@@@.+     ",
"   .@@@@@@.#    ",
"  .@@@@@@@@.    ",
"  .@@@@@@@@.#   ",
"  .@@@@@@$$.#   ",
"  .@%%@$$$$.#   ",
"   .%%$$$$..#   ",
"   #.$$$$.+&.#  ",
"    #.*..#.&&.# ",
"  .   #####.&=.#",
" ......    #.-.#",
"  .     .   #..#",
"    ......   ###",
"        .       ",
"                "};
