/* XPM */
static char * edit_redo_xpm[] = {
"16 16 78 1",
" 	c None",
".	c #179412",
"+	c #56A202",
"@	c #1F9A11",
"#	c #4FA40B",
"$	c #6DDC0C",
"%	c #68D809",
"&	c #66D509",
"*	c #63D209",
"=	c #5DCF18",
"-	c #84C561",
";	c #219C12",
">	c #0E6709",
",	c #25A013",
"'	c #60C821",
")	c #56A80A",
"!	c #6BC410",
"~	c #68C30E",
"{	c #6ACF0E",
"]	c #6BC908",
"^	c #6CD115",
"/	c #51C411",
"(	c #1C9812",
"_	c #189418",
":	c #40762B",
"<	c #017F1B",
"[	c #13600E",
"}	c #0D570C",
"|	c #0F5516",
"1	c #6BBF12",
"2	c #6DC614",
"3	c #89EF22",
"4	c #53BC10",
"5	c #47BC11",
"6	c #58BC17",
"7	c #179416",
"8	c #39772A",
"9	c #16610E",
"0	c #A1A0A5",
"a	c #A19EA5",
"b	c #A1A0A6",
"c	c #9FA0A4",
"d	c #16620A",
"e	c #0C520C",
"f	c #45B23F",
"g	c #68C111",
"h	c #6EDC04",
"i	c #63CC0F",
"j	c #68D010",
"k	c #0F520B",
"l	c #126A14",
"m	c #11640A",
"n	c #A49EA8",
"o	c #A2A1A9",
"p	c #0C5408",
"q	c #10A20F",
"r	c #66C414",
"s	c #63C60F",
"t	c #75DB0B",
"u	c #0A560E",
"v	c #A3A0A7",
"w	c #0A5409",
"x	c #389E16",
"y	c #5BB712",
"z	c #64CA09",
"A	c #A0A0AA",
"B	c #3B9D14",
"C	c #10530E",
"D	c #2E8411",
"E	c #2D8512",
"F	c #45A414",
"G	c #0A530C",
"H	c #0D5708",
"I	c #0D520B",
"J	c #9DA0A7",
"K	c #A29FA8",
"L	c #A1A0A8",
"M	c #A0A0A2",
"                ",
"                ",
"                ",
"    .....+      ",
"  @#$%&*=-;.  > ",
" .,')+!~{]^/(.> ",
"-_:<[}|#123456> ",
"7890abcdefghijk ",
"lmn     opqrstk ",
"ub       vwxyzk ",
"A        BCDEFk ",
"         GHkIkk ",
"         vJKLM  ",
"                ",
"                ",
"                "};
