/* XPM */
static char * edit_undo_xpm[] = {
"16 16 77 1",
" 	c None",
".	c #56A202",
"+	c #179412",
"@	c #0E6709",
"#	c #219C12",
"$	c #84C561",
"%	c #5DCF18",
"&	c #63D209",
"*	c #66D509",
"=	c #68D809",
"-	c #6DDC0C",
";	c #4FA40B",
">	c #1F9A11",
",	c #1C9812",
"'	c #51C411",
")	c #6CD115",
"!	c #6BC908",
"~	c #6ACF0E",
"{	c #68C30E",
"]	c #6BC410",
"^	c #56A80A",
"/	c #60C821",
"(	c #25A013",
"_	c #58BC17",
":	c #47BC11",
"<	c #53BC10",
"[	c #89EF22",
"}	c #6DC614",
"|	c #6BBF12",
"1	c #0F5516",
"2	c #0D570C",
"3	c #13600E",
"4	c #017F1B",
"5	c #40762B",
"6	c #189418",
"7	c #0F520B",
"8	c #68D010",
"9	c #63CC0F",
"0	c #6EDC04",
"a	c #68C111",
"b	c #45B23F",
"c	c #0C520C",
"d	c #16620A",
"e	c #9FA0A4",
"f	c #A1A0A6",
"g	c #A19EA5",
"h	c #A1A0A5",
"i	c #16610E",
"j	c #39772A",
"k	c #179416",
"l	c #75DB0B",
"m	c #63C60F",
"n	c #66C414",
"o	c #10A20F",
"p	c #0C5408",
"q	c #A2A1A9",
"r	c #A49EA8",
"s	c #11640A",
"t	c #126A14",
"u	c #64CA09",
"v	c #5BB712",
"w	c #389E16",
"x	c #0A5409",
"y	c #A3A0A7",
"z	c #0A560E",
"A	c #45A414",
"B	c #2D8512",
"C	c #2E8411",
"D	c #10530E",
"E	c #3B9D14",
"F	c #A0A0AA",
"G	c #0D5708",
"H	c #0A530C",
"I	c #A0A0A2",
"J	c #A1A0A8",
"K	c #A29FA8",
"L	c #9DA0A7",
"                ",
"                ",
"                ",
"      .+++++    ",
" @  +#$%&*=-;>  ",
" @+,')!~{].^/(+ ",
" @_:<[}|;123456$",
" 7890abcdefghijk",
" 7lmnopq     rst",
" 7uvwxy       fz",
" 7ABCDE        F",
" 7777GH         ",
"  IJKLy         ",
"                ",
"                ",
"                "};
