/* XPM */
static char * goto_last_edit_xpm[] = {
"16 16 125 2",
"  	c None",
". 	c #12670C",
"+ 	c #51A303",
"@ 	c #68C10F",
"# 	c #6A748D",
"$ 	c #6D7285",
"% 	c #6E7389",
"& 	c #6D7487",
"* 	c #6D7486",
"= 	c #6E7587",
"- 	c #6C7386",
"; 	c #6C7385",
"> 	c #6E7386",
", 	c #5A6171",
"' 	c #7B4A00",
") 	c #CC9806",
"! 	c #372F2D",
"~ 	c #6F7488",
"{ 	c #FFFFFF",
"] 	c #FEFFFF",
"^ 	c #FFFFFD",
"/ 	c #FFFDFE",
"( 	c #FDFDFD",
"_ 	c #DAC84A",
": 	c #FDFFFC",
"< 	c #FEFFFA",
"[ 	c #FEFEFC",
"} 	c #FEFEFF",
"| 	c #FEFCFD",
"1 	c #FFFEFC",
"2 	c #FEFEFE",
"3 	c #A2A0A3",
"4 	c #6B7284",
"5 	c #6D7286",
"6 	c #030552",
"7 	c #6E7585",
"8 	c #FFFFFB",
"9 	c #010451",
"0 	c #323467",
"a 	c #9F9EA3",
"b 	c #030456",
"c 	c #B7D9F4",
"d 	c #333369",
"e 	c #A19FA4",
"f 	c #6E7588",
"g 	c #FBFCFE",
"h 	c #040353",
"i 	c #B4D6F9",
"j 	c #A3D4FC",
"k 	c #313364",
"l 	c #313268",
"m 	c #010356",
"n 	c #FEFDF9",
"o 	c #8FA892",
"p 	c #FFFEFA",
"q 	c #00024F",
"r 	c #B5DAF7",
"s 	c #49AEFF",
"t 	c #A7D3F6",
"u 	c #B8DCF6",
"v 	c #B4D7F3",
"w 	c #B8DAF3",
"x 	c #060352",
"y 	c #6C7586",
"z 	c #FEFDFB",
"A 	c #FDFFFE",
"B 	c #323369",
"C 	c #54A1FD",
"D 	c #549EFD",
"E 	c #539DFF",
"F 	c #569CFE",
"G 	c #4DA2FC",
"H 	c #539EF9",
"I 	c #050450",
"J 	c #E7EBEE",
"K 	c #323264",
"L 	c #529DFA",
"M 	c #549DF9",
"N 	c #373064",
"O 	c #313366",
"P 	c #343667",
"Q 	c #FDFEFF",
"R 	c #F4F7FC",
"S 	c #ECEFF4",
"T 	c #E4E9EF",
"U 	c #DCE5EE",
"V 	c #D3DCE3",
"W 	c #CDD5E0",
"X 	c #363466",
"Y 	c #509EFF",
"Z 	c #353163",
"` 	c #F7F8FC",
" .	c #EEF0EF",
"..	c #E6EAED",
"+.	c #DFE4EA",
"@.	c #D4DBE3",
"#.	c #CBD8E1",
"$.	c #C6CFDE",
"%.	c #BFC9D3",
"&.	c #BBC9D6",
"*.	c #2F3569",
"=.	c #313467",
"-.	c #A0A0A2",
";.	c #030154",
">.	c #000352",
",.	c #030657",
"'.	c #050251",
").	c #050155",
"!.	c #050452",
"~.	c #030751",
"{.	c #020353",
"].	c #070256",
"^.	c #9FA1A0",
"/.	c #D2D1CD",
"(.	c #A39FA0",
"_.	c #A2A0A1",
":.	c #A19EA5",
"<.	c #9E9DA2",
"[.	c #A19FA0",
"}.	c #A49FA6",
"|.	c #A39EA4",
"1.	c #A09FA4",
"2.	c #A09EA1",
"3.	c #A19FA2",
"4.	c #9F9FA1",
"                        . + @   ",
"  # $ % & * = - ; > , ' ) + !   ",
"  ~ { { ] ] ^ ^ / ( ' ) _ !     ",
"  > : < [ } | 1 2 ' ) _ ! 3     ",
"  4 ] ( 2 { / 1 ' ) _ ! { 3     ",
"  5 } / [ { { ' ) _ ! / 6 3     ",
"  7 : 8 ^ 2 ' ) _ ! : 9 0 a     ",
"  $ { / { ' ) _ ! [ b c d e     ",
"  f g { { ' ' ! { h i j k l d m ",
"  f n o o o o p q r s t u v w x ",
"  y z ( A : : 2 B C D E F G H I ",
"  & ^ o o o o o J K L M N O 0 P ",
"  * Q A R S T U V W X Y Z a     ",
"  - `  ...+.@.#.$.%.&.*.=.-.    ",
"  $ ;.>.,.'.).!.>.b ~.{.].^.    ",
"  /.(._.e :.<.[.}.|.1.2.3.4.    "};
